<svg xmlns="http://www.w3.org/2000/svg" height="46" viewBox="0 0 60 46" width="60"><style>.a{fill:#231F20;}</style><rect height="5" width="48" x="12" y="21" class="a"/><rect height="5" width="48" x="12" y="2" class="a"/><rect height="5" width="48" x="12" y="40" class="a"/><path d="M5 40.3v0c1-0.2 1.5-0.6 1.9-1.1 0.4-0.5 0.7-1.1 0.7-1.7 0-0.8-0.3-1.4-0.9-1.9s-1.5-0.7-2.6-0.7c-0.8 0-1.5 0.1-2.1 0.3 -0.6 0.2-1.2 0.5-1.8 0.9l1.2 2c0.7-0.5 1.5-0.7 2.2-0.7 0.4 0 0.7 0.1 0.9 0.2 0.2 0.1 0.3 0.2 0.3 0.5 0 0.8-0.7 1-2.3 1H2v3h0.5c0.6 0 1-0.2 1.3-0.1 0.3 0.1 0.6 0.1 0.7 0.2 0.2 0.2 0.2 0.3 0.2 0.6 0 0.4-0.1 0.6-0.4 0.8 -0.3 0.2-0.8 0.3-1.4 0.3 -0.4 0-0.9-0.1-1.4-0.2C1 43.5 1 43.3 0 43.1v2.5c1 0.2 1.2 0.4 1.7 0.5 0.5 0.1 1.1 0.1 1.7 0.1 1.4 0 2.6-0.3 3.4-0.9 0.8-0.6 1.1-1.4 1.1-2.4C7.8 41.4 7 40.5 5 40.3z" class="a"/><path d="M4 26c1.1-1.1 1.9-1.8 2.3-2.2s0.6-0.8 0.9-1.1c0.2-0.4 0.4-0.7 0.5-1.1 0.1-0.4 0.2-0.8 0.2-1.2 0-0.6-0.2-1.1-0.5-1.6 -0.3-0.5-0.7-0.8-1.3-1.1 -0.6-0.2-1.2-0.4-1.9-0.4 -0.6 0-1.1 0.1-1.5 0.2 -0.5 0.1-0.9 0.3-1.3 0.5 -0.4 0.2-0.9 0.6-1.4 1.1l1.6 1.9c0.4-0.4 0.8-0.7 1.2-0.9 0.4-0.2 0.7-0.3 1-0.3 0.3 0 0.6 0.1 0.8 0.2s0.3 0.4 0.3 0.7c0 0.2 0 0.4-0.1 0.7 -0.1 0.2-0.3 0.5-0.5 0.8 -0.2 0.3-0.8 0.8-1.5 1.6L0 26.5V28h8v-2H4V26z" class="a"/><path d="M3 3.9C3.3 3.7 3.7 3.4 3.9 3.2 3.9 3.8 4 4.5 4 5.2V11h2V0H4L0.2 3.1l1.5 1.9L3 3.9z" class="a"/></svg>